<svg width="58" height="58" viewBox="0 0 58 58" fill="none" xmlns="http://www.w3.org/2000/svg">
<g clip-path="url(#clip0_162_117)">
<path d="M29 58.0001C13.0464 58.0001 0.113281 45.0679 0.113281 29.1133C0.113281 13.1588 13.0464 0.225708 29 0.225708" fill="#405866"/>
<path d="M29.0634 58C45.017 58 57.9501 45.0678 57.9501 29.1133C57.9501 13.1597 45.017 0.226562 29.0634 0.226562" fill="#E0505F"/>
<path d="M17.5215 52.7945C22.1392 52.7945 25.8825 49.0511 25.8825 44.4334C25.8825 39.8158 22.1392 36.0724 17.5215 36.0724C12.9038 36.0724 9.1604 39.8158 9.1604 44.4334C9.1604 49.0511 12.9038 52.7945 17.5215 52.7945Z" fill="#4F6977"/>
<path d="M37.9764 22.1923C37.9554 23.1201 37.5721 24.0029 36.9085 24.6516C36.2449 25.3004 35.3537 25.6637 34.4257 25.6637C33.4976 25.6637 32.6065 25.3004 31.9429 24.6516C31.2793 24.0029 30.896 23.1201 30.875 22.1923C30.8752 21.2513 31.2491 20.3489 31.9144 19.6835C32.5797 19.018 33.482 18.6439 34.423 18.6434C35.3647 18.6432 36.268 19.0169 36.9343 19.6823C37.6006 20.3478 37.9754 21.2506 37.9764 22.1923Z" fill="#C84B58"/>
<path d="M45.9351 43.8354C45.9143 44.7444 45.5387 45.6091 44.8885 46.2446C44.2383 46.8802 43.3652 47.236 42.456 47.236C41.5468 47.236 40.6737 46.8802 40.0235 46.2446C39.3733 45.6091 38.9976 44.7444 38.9769 43.8354C38.9976 42.9264 39.3733 42.0617 40.0235 41.4262C40.6737 40.7906 41.5468 40.4348 42.456 40.4348C43.3652 40.4348 44.2383 40.7906 44.8885 41.4262C45.5387 42.0617 45.9143 42.9264 45.9351 43.8354Z" fill="#C84B58"/>
<path d="M5.40757 36.6008C7.33202 36.6008 8.8921 35.0407 8.8921 33.1162C8.8921 31.1918 7.33202 29.6317 5.40757 29.6317C3.48311 29.6317 1.92303 31.1918 1.92303 33.1162C1.92303 35.0407 3.48311 36.6008 5.40757 36.6008Z" fill="#4F6977"/>
<path d="M5.72115 19.1337C6.81977 19.1337 7.71037 18.2431 7.71037 17.1445C7.71037 16.0459 6.81977 15.1553 5.72115 15.1553C4.62254 15.1553 3.73193 16.0459 3.73193 17.1445C3.73193 18.2431 4.62254 19.1337 5.72115 19.1337Z" fill="#4F6977"/>
<path d="M50.9585 31.8012C52.0571 31.8012 52.9477 30.9106 52.9477 29.812C52.9477 28.7134 52.0571 27.8228 50.9585 27.8228C49.8598 27.8228 48.9692 28.7134 48.9692 29.812C48.9692 30.9106 49.8598 31.8012 50.9585 31.8012Z" fill="#C84B58"/>
<path d="M19.0023 17.8133C19.0024 18.6386 18.6747 19.4301 18.0912 20.0137C17.5078 20.5973 16.7164 20.9252 15.8911 20.9254C15.0659 20.9255 14.2744 20.5978 13.6907 20.0143C13.1071 19.4309 12.7792 18.6395 12.7791 17.8142C12.7789 16.989 13.1066 16.1975 13.6901 15.6138C14.2736 15.0302 15.065 14.7023 15.8902 14.7021C16.7155 14.702 17.507 15.0297 18.0906 15.6132C18.6742 16.1967 19.0022 16.9881 19.0023 17.8133Z" fill="#4F6977"/>
<path d="M43.2562 10.0412C43.2643 10.6219 43.1568 11.1984 42.9401 11.7371C42.7234 12.2759 42.4018 12.7662 41.9939 13.1795C41.586 13.5929 41.1 13.9211 40.5642 14.1449C40.0284 14.3688 39.4534 14.484 38.8727 14.4837C38.292 14.4834 37.7171 14.3676 37.1815 14.1432C36.6459 13.9188 36.1603 13.5901 35.7528 13.1763C35.3454 12.7625 35.0242 12.2719 34.8081 11.7329C34.5919 11.1939 34.4851 10.6173 34.4937 10.0367C34.5109 8.88563 34.9803 7.78754 35.8006 6.97982C36.6208 6.17209 37.726 5.71962 38.8772 5.72022C40.0284 5.72081 41.1331 6.17442 41.9526 6.983C42.772 7.79157 43.2403 8.89014 43.2562 10.0412Z" fill="#C84B58"/>
</g>
<defs>
<clipPath id="clip0_162_117">
<rect width="58" height="58" fill="white"/>
</clipPath>
</defs>
</svg>
